<svg width="38" height="36" viewBox="0 0 38 36" fill="none" xmlns="http://www.w3.org/2000/svg">
<path d="M37.9245 17.5629C36.4776 13.7196 33.9546 10.39 30.6663 7.98429L36.7338 1.81286L34.9478 0L1.26616 34.1871L3.05221 36L9.5124 29.4557C12.3964 31.1605 15.6631 32.0857 19 32.1429C23.1288 31.9853 27.1216 30.6031 30.4849 28.1673C33.8483 25.7315 36.4347 22.3487 37.9245 18.4371C38.0252 18.1547 38.0252 17.8453 37.9245 17.5629ZM19 26.3571C17.254 26.3563 15.554 25.7887 14.1485 24.7371L16.4666 22.41C17.4278 22.9445 18.5338 23.1483 19.6187 22.9908C20.7037 22.8333 21.709 22.3229 22.484 21.5363C23.259 20.7497 23.7618 19.7292 23.917 18.628C24.0722 17.5268 23.8714 16.4042 23.3448 15.4286L25.6375 13.1014C26.5299 14.3455 27.066 15.8158 27.1864 17.3498C27.3069 18.8838 27.0071 20.4217 26.3202 21.7935C25.6333 23.1654 24.586 24.3177 23.2941 25.1231C22.0022 25.9285 20.5161 26.3556 19 26.3571ZM4.47092 25.47L10.8044 19.0414C10.772 18.6953 10.7593 18.3476 10.7664 18C10.7698 15.7846 11.6383 13.6609 13.1817 12.0944C14.7251 10.5278 16.8174 9.64626 19 9.64286C19.3345 9.64511 19.6686 9.66657 20.0007 9.70714L24.7888 4.86C22.9252 4.21056 20.9703 3.87188 19 3.85714C14.8712 4.01474 10.8784 5.39686 7.51506 7.83268C4.15173 10.2685 1.56531 13.6513 0.0754633 17.5629C-0.0251544 17.8453 -0.0251544 18.1547 0.0754633 18.4371C1.04963 21.0627 2.54583 23.4567 4.47092 25.47Z" fill="#1D1E1C"/>
</svg>
