<svg width="37" height="30" viewBox="0 0 37 30" fill="none" xmlns="http://www.w3.org/2000/svg">
<path d="M33.3 0H3.7C1.665 0 0.0185 1.6875 0.0185 3.75L0 26.25C0 28.3125 1.665 30 3.7 30H33.3C35.335 30 37 28.3125 37 26.25V3.75C37 1.6875 35.335 0 33.3 0ZM32.56 7.96875L19.4805 16.2563C18.8885 16.6313 18.1115 16.6313 17.5195 16.2563L4.44 7.96875C4.2545 7.86321 4.09205 7.72062 3.96249 7.5496C3.83294 7.37859 3.73897 7.18271 3.68626 6.97382C3.63356 6.76493 3.62323 6.54738 3.65589 6.33433C3.68855 6.12127 3.76352 5.91715 3.87627 5.73431C3.98902 5.55148 4.1372 5.39373 4.31184 5.27062C4.48649 5.1475 4.68396 5.06158 4.89232 5.01806C5.10067 4.97454 5.31557 4.97431 5.52402 5.0174C5.73246 5.06049 5.93011 5.146 6.105 5.26875L18.5 13.125L30.895 5.26875C31.0699 5.146 31.2675 5.06049 31.476 5.0174C31.6844 4.97431 31.8993 4.97454 32.1077 5.01806C32.316 5.06158 32.5135 5.1475 32.6882 5.27062C32.8628 5.39373 33.011 5.55148 33.1237 5.73431C33.2365 5.91715 33.3115 6.12127 33.3441 6.33433C33.3768 6.54738 33.3664 6.76493 33.3137 6.97382C33.261 7.18271 33.1671 7.37859 33.0375 7.5496C32.908 7.72062 32.7455 7.86321 32.56 7.96875Z" fill="#1D1E1C"/>
</svg>
