<svg width="39" height="23" viewBox="0 0 39 23" fill="none" xmlns="http://www.w3.org/2000/svg">
<path d="M1.77273 23V19.1667H37.2273V23H1.77273ZM3.81136 11.4042L1.50682 9.96667L3.01364 7.09167H0V4.21667H3.01364L1.50682 1.4375L3.81136 0L5.31818 2.77917L6.825 0L9.12955 1.4375L7.62273 4.21667H10.6364V7.09167H7.62273L9.12955 9.96667L6.825 11.4042L5.31818 8.52917L3.81136 11.4042ZM17.9932 11.4042L15.6886 9.96667L17.1955 7.09167H14.1818V4.21667H17.1955L15.6886 1.4375L17.9932 0L19.5 2.77917L21.0068 0L23.3114 1.4375L21.8045 4.21667H24.8182V7.09167H21.8045L23.3114 9.96667L21.0068 11.4042L19.5 8.52917L17.9932 11.4042ZM32.175 11.4042L29.8705 9.96667L31.3773 7.09167H28.3636V4.21667H31.3773L29.8705 1.4375L32.175 0L33.6818 2.77917L35.1886 0L37.4932 1.4375L35.9864 4.21667H39V7.09167H35.9864L37.4932 9.96667L35.1886 11.4042L33.6818 8.52917L32.175 11.4042Z" fill="#1D1E1C"/>
</svg>
