<svg width="30" height="31" viewBox="0 0 30 31" fill="none" xmlns="http://www.w3.org/2000/svg">
<path d="M29.4489 24.2688L22.6034 18.0447C22.28 17.7502 21.8547 17.5931 21.4175 17.6066C20.9803 17.6201 20.5655 17.8032 20.2609 18.1171L16.231 22.2615C15.261 22.0762 13.3109 21.4683 11.3036 19.466C9.29625 17.457 8.68832 15.5019 8.50813 14.5386L12.6491 10.5071C12.963 10.2025 13.1461 9.78775 13.1597 9.35055C13.1732 8.91336 13.016 8.48806 12.7215 8.16467L6.4991 1.32088C6.20447 0.996466 5.79497 0.799686 5.35759 0.77233C4.92021 0.744974 4.48939 0.889197 4.15663 1.17437L0.502312 4.3083C0.211164 4.6005 0.0373877 4.9894 0.0139469 5.40122C-0.0113133 5.82222 -0.492942 15.7949 7.24006 23.5312C13.9862 30.2756 22.4366 30.769 24.7639 30.769C25.1041 30.769 25.3129 30.7589 25.3685 30.7556C25.78 30.7313 26.1682 30.5569 26.4598 30.2655L29.592 26.6096C29.8783 26.2779 30.0236 25.8474 29.9969 25.41C29.9701 24.9727 29.7735 24.5631 29.4489 24.2688Z" fill="#1D1E1C"/>
</svg>
