<svg width="590" height="311" viewBox="0 0 590 311" fill="none" xmlns="http://www.w3.org/2000/svg">
<path d="M322.051 0.162914C290.3 -3.0748 205.969 43.0196 205.969 43.0196L260.524 103.842L344.314 165.014L411.525 200.962L480.034 210.986L518.875 222.738H399.214L164.571 202.106L147.952 167.791L181.985 175.738L154.492 136.33H197.266L175.004 95.2062L202.488 89.325L221.26 69.2934L205.979 43.0251C205.979 43.0251 190.413 33.2009 184.168 33.3453C156.91 33.9284 101.686 73.9528 69.2463 97.9774C33.571 124.362 7 158.461 7 158.461L0 311H590V222.732H534.147L497.921 205.627L439.442 188.517L459.079 180.225L407.149 158.461L381.179 115.249L415.006 123.535L363.066 82.7551H378.78L356.095 56.8534L347.353 16.7402C347.362 16.7458 330.213 0.990392 322.051 0.162914ZM379.055 233.106C392.448 234.8 405.438 237.099 420.227 233.028C444.653 226.597 462.413 235.727 485.993 237.482C463.474 239.209 444.889 230.229 421.978 236.494C400.846 242.025 384.768 235.983 365.544 233.106H379.055ZM18.4375 199.763L279.857 222.738H18.4375V199.763ZM136.339 236.666C121.048 238.332 107.518 232.168 91.9023 236.494C75.2152 240.831 63.1595 235.128 47.4852 233.106H59.5703C69.502 234.067 79.178 235.944 89.798 233.106H116.722C122.976 234.339 129.269 235.911 136.339 236.666ZM98.9627 296.405C74.4973 302.814 56.7875 293.706 33.1777 291.94C55.7058 290.258 74.281 299.232 97.1828 292.951C121.619 286.509 139.378 295.644 162.968 297.405C140.45 299.115 121.874 290.146 98.9627 296.405ZM262.668 256.575C246.069 255.454 232.843 258.397 217.189 261.44C188.525 267.005 167.688 256.103 140.705 252.993C141.895 252.86 142.809 252.804 143.586 252.782C157.166 251.849 168.514 255.37 181.976 256.292C198.574 257.436 211.81 254.432 227.455 251.394C256.09 245.863 276.976 256.72 303.929 259.863C289.031 261.618 277.074 257.558 262.668 256.575ZM397.876 284.726C369.212 290.28 348.375 279.395 321.393 276.279C322.339 276.169 323.299 276.099 324.264 276.068C337.844 275.124 349.201 278.662 362.653 279.578C379.252 280.711 392.488 277.718 408.142 274.685C436.777 269.149 457.663 280.006 484.616 283.143C469.709 284.904 457.761 280.844 443.355 279.861C426.747 278.723 413.521 281.688 397.876 284.726ZM509.524 300.398C485.059 306.807 467.359 297.699 443.749 295.933C466.277 294.234 484.852 303.225 507.764 296.944C532.19 290.502 549.949 299.632 573.529 301.387C551.011 303.108 532.436 294.134 509.524 300.398ZM575.25 256.997C559.959 258.663 546.428 252.493 530.823 256.82C513.477 261.324 501.185 254.948 484.626 253.182C485.649 253.066 486.366 253.054 486.838 253.066C501.225 252.194 514.195 257.469 529.043 253.365C546.37 248.817 558.691 255.226 575.25 256.997Z" fill="#4D4D4D"/>
<path d="M395.736 71.7044L447.742 138.364L500.64 188.518L512.19 182.298L526.644 190.944L589.999 208.571V87.2488C589.999 87.2488 551.124 76.6082 537.552 76.2028C529.188 75.9418 504.657 81.0288 504.657 81.0288L557.004 119.748C513.111 111.368 504.657 81.0288 504.657 81.0288C504.657 81.0288 485.085 72.8318 477.983 71.3545C470.661 69.8218 447.753 69.2942 447.753 69.2942L517.549 147.31C457.98 141.068 468.207 96.4843 447.753 69.2942C447.753 69.2942 432.106 49.1126 423.753 45.0974C415.92 41.3376 395.816 42.8149 387.632 39.5716C378.057 35.7508 366.177 19.8232 356.19 16.7521C353.085 15.808 342.848 16.7521 342.848 16.7521L374.41 53.3888L395.736 71.7044Z" fill="#4D4D4D"/>
</svg>
