<svg width="253" height="253" viewBox="0 0 253 253" fill="none" xmlns="http://www.w3.org/2000/svg">
<path d="M0.00444031 164.192C0.0586302 162.785 0.544789 161.43 1.39513 160.317C2.24547 159.204 3.41761 158.387 4.74811 157.98L57.7893 139.311L59.2475 138.955C62.656 138.421 66.1347 140.111 67.4348 143.137C68.9281 146.59 67.0307 150.487 63.2006 151.84L27.5704 164.37L127.135 200.926L225.452 164.031L190.015 151.858L188.679 151.235C185.745 149.562 184.428 146.216 185.693 143.19C186.993 140.165 190.436 138.439 193.862 138.955L195.32 139.311L248.204 157.5C251.05 158.479 252.947 160.935 253 163.676C252.971 165.075 252.515 166.43 251.693 167.555C250.872 168.681 249.726 169.52 248.414 169.958L130.051 214.381C128.228 215.067 126.225 215.08 124.394 214.417L4.64269 170.456C3.32358 170.029 2.16847 169.196 1.33743 168.073C0.50638 166.951 0.0405369 165.594 0.00444031 164.192Z" fill="#4D4D4D"/>
<path d="M0.549138 199.235C1.90196 196.21 5.39822 194.59 8.80663 195.142L10.2649 195.533L127.135 238.443L242.687 195.088L244.128 194.697C247.536 194.092 251.032 195.711 252.42 198.701C253.808 201.709 252.596 205.091 249.732 206.835L248.414 207.476L130.051 251.898C128.228 252.585 126.225 252.597 124.394 251.934L4.64275 207.974L3.32506 207.351C0.426154 205.607 -0.803685 202.261 0.549138 199.235ZM111.094 69.1882C111.024 67.0929 111.371 65.0048 112.115 63.0483C112.858 61.0917 113.982 59.3067 115.421 57.7995C116.859 56.2922 118.583 55.0937 120.488 54.2751C122.393 53.4565 124.441 53.0346 126.511 53.0346C128.581 53.0346 130.629 53.4565 132.534 54.2751C134.439 55.0937 136.163 56.2922 137.601 57.7995C139.04 59.3067 140.164 61.0917 140.907 63.0483C141.651 65.0048 141.998 67.0929 141.928 69.1882C141.793 73.2389 140.11 77.0781 137.233 79.8952C134.357 82.7124 130.512 84.2872 126.511 84.2872C122.51 84.2872 118.666 82.7124 115.789 79.8952C112.913 77.0781 111.229 73.2389 111.094 69.1882ZM58.211 69.1882C58.211 50.8383 65.4069 33.2401 78.2156 20.2648C91.0244 7.28945 108.397 0 126.511 0C144.625 0 161.998 7.28945 174.806 20.2648C187.615 33.2401 194.811 50.8383 194.811 69.1882C194.811 134.808 132.441 171.649 129.805 173.197C128.801 173.775 127.666 174.078 126.511 174.078C125.356 174.078 124.221 173.775 123.217 173.197C120.581 171.649 58.211 134.808 58.211 69.1882ZM71.4406 69.1882C71.4406 118.861 114.186 151.2 126.52 159.475C138.818 151.2 181.581 118.879 181.581 69.1882C181.581 54.3903 175.778 40.1985 165.449 29.7348C155.12 19.2711 141.11 13.3927 126.502 13.3927C111.894 13.3927 97.8847 19.2711 87.5553 29.7348C77.226 40.1985 71.4406 54.3903 71.4406 69.1882Z" fill="#4D4D4D"/>
</svg>
