<svg width="37" height="31" viewBox="0 0 37 31" fill="none" xmlns="http://www.w3.org/2000/svg">
<path fill-rule="evenodd" clip-rule="evenodd" d="M14.8 0.230957H22.2C29.1764 0.230957 32.6654 0.230957 34.8318 2.42846C36.9981 4.62596 37 8.16033 37 15.231C37 22.3016 37 25.8378 34.8318 28.0335C32.6636 30.2291 29.1764 30.231 22.2 30.231H14.8C7.82365 30.231 4.33455 30.231 2.1682 28.0335C0.00185005 25.836 0 22.3016 0 15.231C0 8.16033 -2.46181e-07 4.62408 2.1682 2.42846C4.3364 0.232832 7.82365 0.230957 14.8 0.230957ZM20.8125 9.60596C20.8125 9.233 20.9587 8.87531 21.2189 8.61159C21.4791 8.34787 21.832 8.19971 22.2 8.19971H31.45C31.818 8.19971 32.1709 8.34787 32.4311 8.61159C32.6913 8.87531 32.8375 9.233 32.8375 9.60596C32.8375 9.97892 32.6913 10.3366 32.4311 10.6003C32.1709 10.864 31.818 11.0122 31.45 11.0122H22.2C21.832 11.0122 21.4791 10.864 21.2189 10.6003C20.9587 10.3366 20.8125 9.97892 20.8125 9.60596ZM22.6625 15.231C22.6625 14.858 22.8087 14.5003 23.0689 14.2366C23.3291 13.9729 23.682 13.8247 24.05 13.8247H31.45C31.818 13.8247 32.1709 13.9729 32.4311 14.2366C32.6913 14.5003 32.8375 14.858 32.8375 15.231C32.8375 15.6039 32.6913 15.9616 32.4311 16.2253C32.1709 16.489 31.818 16.6372 31.45 16.6372H24.05C23.682 16.6372 23.3291 16.489 23.0689 16.2253C22.8087 15.9616 22.6625 15.6039 22.6625 15.231ZM24.5125 20.856C24.5125 20.483 24.6587 20.1253 24.9189 19.8616C25.1791 19.5979 25.532 19.4497 25.9 19.4497H31.45C31.818 19.4497 32.1709 19.5979 32.4311 19.8616C32.6913 20.1253 32.8375 20.483 32.8375 20.856C32.8375 21.2289 32.6913 21.5866 32.4311 21.8503C32.1709 22.114 31.818 22.2622 31.45 22.2622H25.9C25.532 22.2622 25.1791 22.114 24.9189 21.8503C24.6587 21.5866 24.5125 21.2289 24.5125 20.856ZM16.65 9.60596C16.65 10.6005 16.2602 11.5543 15.5663 12.2576C14.8724 12.9609 13.9313 13.356 12.95 13.356C11.9687 13.356 11.0276 12.9609 10.3337 12.2576C9.63982 11.5543 9.25 10.6005 9.25 9.60596C9.25 8.6114 9.63982 7.65757 10.3337 6.95431C11.0276 6.25105 11.9687 5.85596 12.95 5.85596C13.9313 5.85596 14.8724 6.25105 15.5663 6.95431C16.2602 7.65757 16.65 8.6114 16.65 9.60596ZM12.95 24.606C20.35 24.606 20.35 22.9278 20.35 20.856C20.35 18.7841 17.0385 17.106 12.95 17.106C8.8615 17.106 5.55 18.7841 5.55 20.856C5.55 22.9278 5.55 24.606 12.95 24.606Z" fill="#1D1E1C"/>
</svg>
