<svg width="30" height="30" viewBox="0 0 30 30" fill="none" xmlns="http://www.w3.org/2000/svg">
<path d="M5.83333 8.25C5.83333 6.06196 6.7991 3.96354 8.51819 2.41637C10.2373 0.869194 12.5688 0 15 0C17.4312 0 19.7627 0.869194 21.4818 2.41637C23.2009 3.96354 24.1667 6.06196 24.1667 8.25C24.1667 10.438 23.2009 12.5365 21.4818 14.0836C19.7627 15.6308 17.4312 16.5 15 16.5C12.5688 16.5 10.2373 15.6308 8.51819 14.0836C6.7991 12.5365 5.83333 10.438 5.83333 8.25ZM0 25.5C0 23.5109 0.877974 21.6032 2.44078 20.1967C4.00358 18.7902 6.1232 18 8.33333 18H21.6667C23.8768 18 25.9964 18.7902 27.5592 20.1967C29.122 21.6032 30 23.5109 30 25.5V30H0V25.5Z" fill="#F8F6F2"/>
</svg>
