<svg width="30" height="30" viewBox="0 0 30 30" fill="none" xmlns="http://www.w3.org/2000/svg">
<path fill-rule="evenodd" clip-rule="evenodd" d="M0.363333 1.82C-9.93411e-08 2.53333 0 3.46667 0 5.33333V6.35667L29.9833 3.63C29.9517 2.81667 29.8667 2.27333 29.6367 1.82C29.3171 1.19282 28.8072 0.682906 28.18 0.363333C27.4667 -9.93411e-08 26.5333 0 24.6667 0H5.33333C3.46667 0 2.53333 -9.93411e-08 1.82 0.363333C1.19282 0.682906 0.682906 1.19282 0.363333 1.82ZM30 6.97667L21.8917 7.71333L26.0683 29.9917C27.055 29.97 27.6733 29.895 28.18 29.6367C28.8072 29.3171 29.3171 28.8072 29.6367 28.18C30 27.4667 30 26.5333 30 24.6667V6.97667ZM22.68 30L18.5567 8.01667L0 9.70333V24.6667C0 26.5333 -9.93411e-08 27.4667 0.363333 28.18C0.682906 28.8072 1.19282 29.3171 1.82 29.6367C2.53333 30 3.46667 30 5.33333 30H22.68ZM15.8333 20.05C15.8333 23.6467 12.2667 26.1733 10.7117 27.105C10.4967 27.234 10.2507 27.3021 10 27.3021C9.7493 27.3021 9.50331 27.234 9.28833 27.105C7.73333 26.1733 4.16667 23.6467 4.16667 20.0483C4.16667 16.52 6.99333 14.1667 10 14.1667C13.1117 14.1667 15.8333 16.52 15.8333 20.05Z" fill="#F8F6F2"/>
<path d="M9.99998 21.6666C10.9205 21.6666 11.6666 20.9204 11.6666 19.9999C11.6666 19.0794 10.9205 18.3333 9.99998 18.3333C9.07951 18.3333 8.33331 19.0794 8.33331 19.9999C8.33331 20.9204 9.07951 21.6666 9.99998 21.6666Z" fill="#F8F6F2"/>
</svg>
